<?xml version="1.0" encoding="UTF-8"?>
<svg id="Camada_1" data-name="Camada 1" xmlns="http://www.w3.org/2000/svg" viewBox="0 0 171.62 269.32">
  <path d="M60.47,182.72l-60.23-.69-.24,20.48,51.34.59,21.6-22.24c-3.91,1.24-8.09,1.91-12.47,1.86Z"/>
  <path d="M81.14,90.21c10.93-8.66,17.81-22.32,17.99-37.55C99.46,23.7,75.44.61,46.48.27l-23.72-.27-.23,20.18,23.72.27c18.43.21,32.31,14.41,32.1,32.55-.21,18.44-14.42,32.62-32.85,32.41l-23.72-.27-.24,20.47,39.81.46c21.65.25,38.42,18.01,38.18,39.07-.04,3.42-.57,6.7-1.44,9.84l20.76-21.38c-4.02-19.85-18.42-37.04-37.71-43.38Z"/>
  <path d="M159.85,233.16c-11.77,14.33-28.89,21.18-46.65,21.18-33.86,0-61.93-25.31-63.86-58.22l-12.87,13.4c7.91,34.2,38.57,59.78,75.88,59.78,23.11,0,44.08-9.84,59.27-26.31l-11.77-9.84Z"/>
  <path d="M149.56,151.01l11.12-10.49c-10.62-10.13-23.66-16.52-37.75-19.06l-13.6,14.16c14.31.18,29.73,4.9,40.23,15.39Z"/>
</svg>